<mxfile host="app.diagrams.net" modified="2024-05-15T17:18:29.566Z" agent="Mozilla/5.0 (Windows NT 10.0; Win64; x64) AppleWebKit/537.36 (KHTML, like Gecko) Chrome/124.0.0.0 Safari/537.36" etag="AHa6P77dWEs_pRZ2IzS-" version="24.4.0" type="device">
  <diagram id="JUzksbQDSs-LjVpE02Q1" name="PÃ¡gina-1">
    <mxGraphModel dx="1120" dy="529" grid="1" gridSize="10" guides="1" tooltips="1" connect="1" arrows="1" fold="1" page="1" pageScale="1" pageWidth="827" pageHeight="1169" math="0" shadow="0">
      <root>
        <mxCell id="0" />
        <mxCell id="1" parent="0" />
        <mxCell id="3AQX-FyJNdkEs0jPdl4k-1" value="Modalidade" style="swimlane;childLayout=stackLayout;horizontal=1;startSize=50;horizontalStack=0;rounded=1;fontSize=14;fontStyle=0;strokeWidth=2;resizeParent=0;resizeLast=1;shadow=0;dashed=0;align=center;arcSize=4;whiteSpace=wrap;html=1;" parent="1" vertex="1">
          <mxGeometry x="260" y="50" width="130" height="150" as="geometry" />
        </mxCell>
        <mxCell id="3AQX-FyJNdkEs0jPdl4k-2" value="Codigo PK&lt;div&gt;nome&lt;/div&gt;&lt;div&gt;treinador&amp;nbsp;&lt;/div&gt;&lt;div&gt;preparofizico&lt;/div&gt;" style="align=left;strokeColor=none;fillColor=none;spacingLeft=4;fontSize=12;verticalAlign=top;resizable=0;rotatable=0;part=1;html=1;" parent="3AQX-FyJNdkEs0jPdl4k-1" vertex="1">
          <mxGeometry y="50" width="130" height="100" as="geometry" />
        </mxCell>
        <mxCell id="3AQX-FyJNdkEs0jPdl4k-3" value="Atleta" style="swimlane;childLayout=stackLayout;horizontal=1;startSize=50;horizontalStack=0;rounded=1;fontSize=14;fontStyle=0;strokeWidth=2;resizeParent=0;resizeLast=1;shadow=0;dashed=0;align=center;arcSize=4;whiteSpace=wrap;html=1;" parent="1" vertex="1">
          <mxGeometry x="20" y="50" width="130" height="220" as="geometry" />
        </mxCell>
        <mxCell id="3AQX-FyJNdkEs0jPdl4k-4" value="Codigo PK&lt;div&gt;nome&amp;nbsp;&lt;/div&gt;&lt;div&gt;endereco&lt;/div&gt;&lt;div&gt;cidade&lt;/div&gt;&lt;div&gt;estado&lt;/div&gt;&lt;div&gt;RG&lt;/div&gt;&lt;div&gt;CPF&lt;/div&gt;&lt;div&gt;peso&lt;/div&gt;&lt;div&gt;altura&lt;/div&gt;&lt;div&gt;datadenascimento&lt;/div&gt;&lt;div&gt;codigomodalidade FK&lt;/div&gt;" style="align=left;strokeColor=none;fillColor=none;spacingLeft=4;fontSize=12;verticalAlign=top;resizable=0;rotatable=0;part=1;html=1;" parent="3AQX-FyJNdkEs0jPdl4k-3" vertex="1">
          <mxGeometry y="50" width="130" height="170" as="geometry" />
        </mxCell>
        <mxCell id="3AQX-FyJNdkEs0jPdl4k-5" value="Campeonato" style="swimlane;childLayout=stackLayout;horizontal=1;startSize=50;horizontalStack=0;rounded=1;fontSize=14;fontStyle=0;strokeWidth=2;resizeParent=0;resizeLast=1;shadow=0;dashed=0;align=center;arcSize=4;whiteSpace=wrap;html=1;" parent="1" vertex="1">
          <mxGeometry x="480" y="50" width="160" height="180" as="geometry" />
        </mxCell>
        <mxCell id="3AQX-FyJNdkEs0jPdl4k-6" value="codigo PK&lt;div&gt;nome&amp;nbsp;&lt;/div&gt;&lt;div&gt;local&amp;nbsp;&lt;/div&gt;&lt;div&gt;cidade&lt;/div&gt;&lt;div&gt;estado&lt;/div&gt;&lt;div&gt;pais&amp;nbsp;&lt;/div&gt;&lt;div&gt;data&lt;/div&gt;&lt;div&gt;codigomodalidade FK&lt;/div&gt;" style="align=left;strokeColor=none;fillColor=none;spacingLeft=4;fontSize=12;verticalAlign=top;resizable=0;rotatable=0;part=1;html=1;" parent="3AQX-FyJNdkEs0jPdl4k-5" vertex="1">
          <mxGeometry y="50" width="160" height="130" as="geometry" />
        </mxCell>
        <mxCell id="3AQX-FyJNdkEs0jPdl4k-9" value="" style="edgeStyle=entityRelationEdgeStyle;fontSize=12;html=1;endArrow=ERmany;startArrow=ERmany;rounded=0;exitX=1.015;exitY=0.14;exitDx=0;exitDy=0;exitPerimeter=0;entryX=-0.025;entryY=0.877;entryDx=0;entryDy=0;entryPerimeter=0;" parent="1" source="3AQX-FyJNdkEs0jPdl4k-2" target="3AQX-FyJNdkEs0jPdl4k-6" edge="1">
          <mxGeometry width="100" height="100" relative="1" as="geometry">
            <mxPoint x="360" y="330" as="sourcePoint" />
            <mxPoint x="470" y="220" as="targetPoint" />
            <Array as="points">
              <mxPoint x="420" y="270" />
            </Array>
          </mxGeometry>
        </mxCell>
        <mxCell id="qXIGW8PwikezLVMW2loQ-5" value="" style="edgeStyle=entityRelationEdgeStyle;fontSize=12;html=1;endArrow=ERmany;rounded=0;entryX=1.046;entryY=0.918;entryDx=0;entryDy=0;entryPerimeter=0;exitX=-0.023;exitY=0.14;exitDx=0;exitDy=0;exitPerimeter=0;" edge="1" parent="1" source="3AQX-FyJNdkEs0jPdl4k-2" target="3AQX-FyJNdkEs0jPdl4k-4">
          <mxGeometry width="100" height="100" relative="1" as="geometry">
            <mxPoint x="360" y="330" as="sourcePoint" />
            <mxPoint x="460" y="230" as="targetPoint" />
          </mxGeometry>
        </mxCell>
      </root>
    </mxGraphModel>
  </diagram>
</mxfile>
